<svg version="1.2" xmlns="http://www.w3.org/2000/svg" viewBox="0 0 400 400" width="400" height="400">
	<style>
		.s0 { fill: #000000 }
	</style>
	<g id="Layer 1">
		<g id="Background">
			<path id="Path 3" fill-rule="evenodd" class="s0" d="m205.51 74.83l-13.69 13.83c81.9 83.3 105.29 109.03 104.81 110.91-0.47 1.89-24.25 26.86-52.84 55.49l-51.97 52.06 31.19 31.06 136.85-138.58c-106.06-107.42-137.71-138.61-138.76-138.6-1.04 0.01-8.06 6.23-15.59 13.83z"/>
			<path id="Path 4" fill-rule="evenodd" class="s0" d="m53.89 75.74l-12.29 14.72 108.65 109.14-109.25 109.14 29.56 29.36 138.59-138.5c-107.41-107.42-139.58-138.6-140.78-138.6-1.21 0.01-7.72 6.64-14.48 14.74z"/>
		</g>
	</g>
</svg>
